C:/Program Files/Krita (x64)/bin/ffmpeg.exe -hide_banner -y -y -r 24 -start_number 0 -start_number_range 1 -i D:/SOFT/images/home/frame%04d.png -f apng -pred none -plays 0 D:/SOFT/images/home/alpaca.apng
=====================================================
Input #0, image2, from 'D:/SOFT/images/home/frame%04d.png':
  Duration: 00:00:01.00, start: 0.000000, bitrate: N/A
  Stream #0:0: Video: png, rgba(pc), 600x600 [SAR 2834:2834 DAR 1:1], 25 fps, 25 tbr, 25 tbn, 25 tbc
Stream mapping:
  Stream #0:0 -> #0:0 (png (native) -> apng (native))
Press [q] to stop, [?] for help
Output #0, apng, to 'D:/SOFT/images/home/alpaca.apng':
  Metadata:
    encoder         : Lavf58.76.100
  Stream #0:0: Video: apng, rgba(pc, progressive), 600x600 [SAR 2834:2834 DAR 1:1], q=2-31, 200 kb/s, 24 fps, 24 tbn
    Metadata:
      encoder         : Lavc58.134.100 apng
frame=    1 fps=0.0 q=0.0 size=       0kB time=00:00:00.00 bitrate=N/A speed=   0x    frame=   14 fps=0.0 q=-0.0 size=     109kB time=00:00:00.54 bitrate=1656.0kbits/s speed=0.671x    frame=   25 fps= 25 q=-0.0 Lsize=     219kB time=00:00:01.04 bitrate=1719.0kbits/s speed=1.03x    
video:219kB audio:0kB subtitle:0kB other streams:0kB global headers:0kB muxing overhead: 0.038436%
